<svg version="1.1" id="Layer_1" xmlns="http://www.w3.org/2000/svg" x="0px"
     y="0px" viewBox="0 0 440 440" style="enable-background:new 0 0 440 440;" xml:space="preserve">
<g>
	<path d="M340.57,241.141c-54.826,0-99.429,44.604-99.429,99.43c0,54.825,44.604,99.429,99.429,99.429S440,395.396,440,340.571
		C440,285.745,395.396,241.141,340.57,241.141z M328.122,395.104l-58.807-58.807l21.213-21.213l37.594,37.594l56.035-56.034
		l21.213,21.213L328.122,395.104z"></path>
    <path d="M166.62,119.397c-24.813,0-45,20.187-45,45s20.187,45,45,45c24.813,0,45-20.187,45-45S191.433,119.397,166.62,119.397z"></path>
    <path d="M326.984,211.853c4.067-14.39,6.256-29.559,6.256-45.234C333.24,74.745,258.494,0,166.62,0C74.746,0,0,74.745,0,166.619
		c0,38.93,13.421,74.781,35.878,103.177L166.62,434.174l48.641-61.155c-2.688-10.373-4.12-21.247-4.12-32.448
		C211.141,273.791,261.978,218.665,326.984,211.853z M91.62,164.397c0-41.355,33.645-75,75-75c41.355,0,75,33.645,75,75
		s-33.645,75-75,75C125.265,239.397,91.62,205.752,91.62,164.397z"></path>
</g>
    <g>
</g>
    <g>
</g>
    <g>
</g>
    <g>
</g>
    <g>
</g>
    <g>
</g>
    <g>
</g>
    <g>
</g>
    <g>
</g>
    <g>
</g>
    <g>
</g>
    <g>
</g>
    <g>
</g>
    <g>
</g>
    <g>
</g>
</svg>
