<?xml version="1.0" standalone="no"?>
<!DOCTYPE svg PUBLIC "-//W3C//DTD SVG 20010904//EN"
 "http://www.w3.org/TR/2001/REC-SVG-20010904/DTD/svg10.dtd">
<svg version="1.0" xmlns="http://www.w3.org/2000/svg"
 width="64" height="64" viewBox="0 0 64 64"
 preserveAspectRatio="xMidYMid meet">

<g transform="translate(0.000000,859.000000) scale(0.100000,-0.100000)"
fill="#000000" stroke="none">
<path d="M4005 8530 c-130 -6 -263 -23 -321 -41 -17 -5 -47 -9 -67 -9 -20 0
-39 -4 -42 -10 -3 -5 -22 -10 -41 -10 -19 0 -34 -4 -34 -10 0 -5 -11 -10 -25
-10 -14 0 -42 -7 -62 -15 -19 -8 -44 -15 -54 -15 -11 0 -27 -4 -37 -9 -20 -10
-40 -18 -137 -56 -38 -14 -78 -31 -87 -36 -10 -5 -25 -9 -33 -9 -8 0 -15 -4
-15 -10 0 -5 -9 -10 -19 -10 -11 0 -21 -3 -23 -7 -4 -10 -110 -63 -126 -63 -6
0 -12 -4 -12 -10 0 -5 -5 -10 -10 -10 -12 0 -94 -52 -98 -62 -2 -5 -12 -8 -23
-8 -10 0 -19 -4 -19 -10 0 -5 -7 -10 -15 -10 -8 0 -15 -4 -15 -9 0 -5 -8 -12
-17 -15 -10 -3 -32 -19 -50 -36 -18 -16 -36 -30 -40 -30 -5 0 -26 -16 -48 -35
-22 -19 -43 -35 -47 -35 -4 0 -33 -26 -66 -57 -33 -32 -91 -88 -131 -124 -39
-37 -71 -70 -71 -73 0 -4 -26 -33 -58 -65 -31 -32 -75 -85 -97 -116 -22 -32
-46 -63 -52 -71 -7 -7 -13 -15 -13 -19 0 -4 -6 -13 -12 -20 -30 -33 -38 -45
-38 -55 0 -5 -4 -10 -10 -10 -5 0 -10 -5 -10 -10 0 -12 -52 -94 -62 -98 -5 -2
-8 -12 -8 -22 0 -10 -3 -20 -8 -22 -12 -5 -141 -272 -148 -306 -4 -18 -10 -32
-15 -32 -5 0 -9 -11 -9 -25 0 -14 -4 -25 -8 -25 -7 0 -12 -16 -49 -150 -9 -30
-19 -65 -24 -78 -5 -13 -9 -36 -9 -52 0 -17 -4 -30 -9 -30 -5 0 -11 -21 -14
-47 -3 -27 -10 -79 -16 -118 -27 -187 -30 -234 -31 -420 0 -195 20 -428 41
-467 5 -10 9 -33 9 -52 0 -19 5 -38 10 -41 6 -3 10 -21 10 -39 0 -17 4 -36 8
-41 5 -6 17 -44 27 -85 10 -41 22 -79 26 -85 5 -5 9 -17 9 -27 0 -10 5 -18 10
-18 6 0 10 -8 10 -18 0 -10 11 -42 25 -70 14 -29 25 -58 25 -66 0 -8 5 -18 10
-21 6 -3 10 -15 10 -26 0 -10 3 -19 8 -19 4 0 21 -32 37 -70 17 -38 33 -70 38
-70 4 0 7 -9 7 -20 0 -11 5 -20 10 -20 6 0 10 -7 10 -15 0 -8 3 -15 8 -15 4 0
16 -20 27 -45 11 -25 23 -45 28 -45 4 0 7 -9 7 -20 0 -11 3 -20 8 -20 4 0 12
-10 18 -23 18 -38 69 -132 74 -137 7 -7 46 -78 67 -122 10 -21 21 -38 25 -38
5 0 8 -4 8 -9 0 -13 73 -135 82 -139 5 -2 8 -8 8 -13 0 -5 20 -40 45 -79 25
-39 45 -73 45 -76 0 -2 8 -14 19 -25 10 -11 27 -37 37 -59 10 -22 22 -40 27
-40 4 0 7 -6 7 -14 0 -8 3 -16 8 -18 10 -4 62 -86 62 -98 0 -5 4 -10 8 -10 5
0 22 -24 37 -53 16 -28 37 -61 47 -71 10 -11 24 -32 30 -48 7 -15 15 -28 18
-28 3 0 14 -16 24 -35 11 -19 23 -35 28 -35 4 0 8 -5 8 -10 0 -12 52 -94 63
-98 4 -2 7 -10 7 -18 0 -8 5 -14 10 -14 6 0 10 -5 10 -12 0 -6 11 -26 25 -44
14 -18 25 -37 25 -43 0 -6 5 -11 10 -11 6 0 10 -7 10 -16 0 -9 8 -24 18 -33
19 -18 31 -37 62 -92 10 -21 25 -43 32 -50 7 -8 22 -32 33 -54 11 -22 27 -48
36 -57 9 -10 22 -31 30 -46 8 -15 17 -29 20 -32 3 -3 18 -27 34 -55 15 -27 30
-52 34 -55 4 -3 15 -23 25 -45 11 -22 22 -42 25 -45 3 -3 13 -18 21 -35 8 -16
18 -32 21 -35 3 -3 23 -39 45 -80 21 -41 43 -79 47 -85 16 -21 73 -123 112
-200 22 -44 43 -81 48 -83 4 -2 7 -12 7 -22 0 -10 3 -20 8 -22 9 -4 62 -110
62 -126 0 -6 5 -12 10 -12 6 0 10 -9 10 -19 0 -11 4 -21 8 -23 9 -3 62 -113
62 -128 0 -6 5 -10 10 -10 6 0 10 -9 10 -20 0 -11 5 -20 10 -20 6 0 10 -6 10
-13 0 -13 19 -59 41 -99 5 -10 9 -25 9 -33 0 -8 5 -15 10 -15 6 0 10 -9 10
-20 0 -11 5 -20 10 -20 6 0 10 -7 10 -15 0 -8 4 -23 10 -33 5 -9 16 -35 25
-57 9 -22 21 -48 26 -57 5 -10 9 -25 9 -33 0 -8 5 -15 10 -15 6 0 10 -7 10
-15 0 -8 11 -40 25 -71 14 -31 25 -65 25 -75 0 -11 5 -19 10 -19 6 0 10 -11
10 -25 0 -14 4 -25 8 -25 4 0 16 -29 27 -65 10 -37 22 -68 27 -71 4 -3 8 -16
8 -29 0 -13 5 -27 10 -30 6 -3 10 -17 10 -30 0 -13 5 -27 10 -30 6 -3 10 -17
10 -30 0 -13 3 -25 8 -27 9 -4 42 -107 42 -131 0 -10 5 -17 10 -17 6 0 10 -16
10 -35 0 -19 5 -35 10 -35 6 0 10 -8 10 -17 0 -9 4 -30 10 -47 5 -17 17 -58
26 -91 8 -33 20 -68 25 -77 5 -10 9 -31 9 -48 0 -56 26 -34 40 33 7 34 17 66
21 71 5 6 9 23 9 38 0 15 5 28 10 28 6 0 10 14 10 30 0 17 4 38 9 48 5 9 17
44 26 77 10 33 21 68 26 77 5 10 9 27 9 38 0 11 5 20 10 20 6 0 10 15 10 34 0
19 3 36 8 38 4 1 20 44 36 93 17 50 33 94 38 99 4 6 8 20 8 33 0 13 4 23 8 23
4 0 17 29 27 65 11 36 23 65 28 65 4 0 7 11 7 25 0 14 5 25 10 25 6 0 10 7 10
15 0 8 4 23 9 33 21 42 41 94 41 107 0 8 5 15 10 15 6 0 10 11 10 25 0 14 5
25 10 25 6 0 10 9 10 20 0 11 5 20 10 20 6 0 10 7 10 15 0 15 3 23 33 83 9 19
17 40 17 48 0 8 5 14 10 14 6 0 10 9 10 20 0 11 5 20 10 20 6 0 10 4 10 10 0
5 11 33 24 62 13 29 30 68 37 86 8 17 17 32 21 32 5 0 8 9 8 20 0 11 5 20 10
20 6 0 10 6 10 13 1 6 14 37 30 67 16 30 44 84 62 120 18 36 36 66 40 68 5 2
8 12 8 23 0 10 5 19 10 19 6 0 10 6 10 14 0 7 7 19 15 26 8 7 15 21 15 31 0
11 5 19 10 19 6 0 10 7 10 15 0 8 5 15 10 15 6 0 10 9 10 20 0 11 4 20 8 20 4
0 16 20 26 45 11 25 23 45 28 45 4 0 8 7 8 15 0 8 5 15 10 15 6 0 10 9 10 20
0 11 4 20 8 20 5 0 17 19 28 43 10 23 27 51 36 61 10 11 18 26 18 33 0 7 3 13
8 13 4 0 12 9 17 19 6 11 19 36 30 58 10 21 27 47 37 57 10 11 18 26 18 33 0
7 4 13 9 13 5 0 12 11 15 25 4 14 11 25 16 25 6 0 10 7 10 15 0 8 5 15 10 15
6 0 10 6 10 13 0 7 8 22 18 33 9 11 26 37 37 59 11 22 22 42 26 45 3 3 27 39
53 80 27 41 52 77 57 78 5 2 9 12 9 22 0 10 3 20 8 22 10 4 62 86 62 98 0 5 5
10 10 10 6 0 10 7 10 15 0 8 3 15 8 15 4 0 16 16 26 35 11 19 23 35 28 35 4 0
8 6 8 13 0 7 8 22 19 33 10 11 22 30 25 42 4 12 12 22 17 22 5 0 9 6 9 13 0 7
9 23 20 35 11 12 20 25 20 31 0 5 3 11 8 13 8 3 62 84 62 93 0 3 8 14 18 25 9
10 26 36 37 57 11 21 26 44 33 52 7 7 22 29 32 50 27 48 44 75 51 81 10 7 69
112 76 133 3 9 9 17 14 17 5 0 9 7 9 15 0 8 3 15 8 15 4 0 25 35 47 78 22 42
43 79 48 80 4 2 7 12 7 23 0 10 3 19 8 19 10 0 42 58 42 76 0 8 5 14 10 14 6
0 10 9 10 19 0 11 3 21 8 23 9 4 62 110 62 126 0 6 5 12 10 12 6 0 10 9 10 19
0 11 3 21 8 23 9 4 62 110 62 126 0 6 5 12 10 12 6 0 10 9 10 20 0 11 5 20 10
20 6 0 10 4 10 10 0 5 16 42 35 81 19 40 35 78 35 85 0 7 3 14 8 16 4 2 20 41
35 88 16 47 33 93 38 102 5 10 9 29 9 42 0 14 5 28 10 31 6 3 10 17 10 30 0
13 4 34 9 47 10 25 34 165 52 298 12 97 7 509 -9 635 -12 99 -31 203 -43 233
-5 13 -9 36 -9 52 0 17 -4 30 -10 30 -5 0 -10 16 -10 35 0 19 -4 35 -10 35 -5
0 -10 10 -10 23 -1 23 -33 123 -44 134 -3 3 -6 14 -6 24 0 10 -8 33 -18 51
-10 18 -24 49 -31 68 -20 51 -64 144 -71 150 -4 3 -15 24 -25 48 -11 23 -22
42 -27 42 -4 0 -8 9 -8 20 0 11 -4 20 -8 20 -5 0 -21 21 -36 48 -34 61 -49 84
-61 97 -5 6 -21 28 -35 48 -14 20 -28 37 -32 37 -5 0 -8 7 -8 16 0 9 -8 24
-18 33 -10 9 -26 27 -35 41 -61 89 -268 297 -393 394 -15 11 -42 33 -60 49
-17 15 -36 27 -41 27 -5 0 -15 9 -23 20 -8 11 -18 20 -22 20 -4 0 -30 16 -57
35 -26 19 -51 35 -55 35 -4 0 -12 5 -19 10 -18 16 -115 72 -182 105 -33 17
-61 33 -63 38 -2 4 -12 7 -22 7 -10 0 -22 5 -25 10 -3 6 -15 10 -26 10 -10 0
-19 3 -19 8 0 8 -59 30 -102 39 -16 3 -28 9 -28 14 0 5 -11 9 -25 9 -14 0 -25
5 -25 10 0 6 -13 10 -28 10 -15 0 -32 4 -37 9 -6 4 -44 16 -85 26 -41 9 -83
21 -92 26 -10 5 -28 9 -41 9 -13 0 -27 4 -33 9 -5 5 -27 11 -49 14 -22 3 -101
14 -175 25 -153 22 -403 32 -595 22z m347 -1609 c164 -36 200 -46 204 -53 3
-4 14 -8 25 -8 10 0 19 -4 19 -10 0 -5 6 -10 14 -10 18 0 140 -68 144 -81 2
-5 9 -9 16 -9 6 0 29 -16 49 -35 20 -19 39 -35 42 -35 10 0 75 -69 75 -80 0
-5 4 -10 9 -10 5 0 26 -24 47 -52 21 -29 41 -55 44 -58 3 -3 14 -23 25 -45 11
-22 23 -41 28 -43 4 -2 7 -12 7 -23 0 -10 5 -19 10 -19 6 0 10 -8 10 -18 0
-10 4 -22 8 -28 9 -10 34 -92 51 -167 6 -26 11 -114 11 -196 0 -119 -4 -164
-21 -227 -11 -44 -23 -91 -26 -106 -3 -16 -9 -28 -14 -28 -5 0 -9 -9 -9 -19 0
-11 -4 -23 -10 -26 -5 -3 -10 -15 -10 -26 0 -10 -4 -19 -8 -19 -5 0 -16 -17
-25 -38 -9 -21 -26 -48 -37 -59 -11 -12 -20 -26 -20 -31 0 -13 -158 -173 -205
-208 -22 -16 -42 -31 -45 -34 -10 -10 -66 -41 -110 -61 -25 -11 -53 -25 -62
-30 -10 -5 -25 -9 -33 -9 -8 0 -15 -4 -15 -10 0 -5 -13 -10 -28 -10 -15 0 -32
-4 -37 -9 -6 -5 -74 -16 -152 -25 -128 -15 -151 -15 -245 -1 -56 9 -111 20
-120 25 -10 6 -29 10 -42 10 -14 0 -28 5 -31 10 -3 6 -15 10 -26 10 -10 0 -19
5 -19 10 0 6 -7 10 -15 10 -18 0 -89 32 -93 43 -2 4 -10 7 -18 7 -8 0 -14 5
-14 10 0 6 -6 10 -12 10 -7 0 -26 11 -42 25 -16 14 -33 25 -37 25 -10 0 -169
156 -169 167 0 4 -11 20 -25 35 -14 15 -25 32 -25 38 0 5 -3 10 -7 10 -5 0
-21 28 -38 63 -16 34 -33 64 -37 65 -5 2 -8 12 -8 22 0 10 -4 22 -10 25 -5 3
-10 16 -10 29 0 12 -4 26 -8 32 -24 26 -37 138 -37 309 0 160 3 188 23 247 12
37 22 74 22 83 0 8 5 15 10 15 6 0 10 6 10 14 0 17 52 120 62 124 5 2 8 11 8
21 0 9 9 23 20 31 11 8 20 19 20 25 0 5 17 28 38 51 20 23 46 53 57 68 11 14
23 26 27 26 5 0 26 18 49 40 22 21 49 42 60 45 10 4 19 11 19 16 0 5 6 9 14 9
8 0 16 4 18 8 4 11 98 62 114 62 8 0 14 5 14 10 0 6 10 10 23 10 13 0 27 3 31
7 11 12 119 43 151 44 17 0 39 4 50 9 27 12 225 12 277 1z"/>
</g>
</svg>
